<svg width="253" height="99" viewBox="0 0 253 99" fill="none" xmlns="http://www.w3.org/2000/svg">
<path d="M30.5469 67.5C29.3516 67.5 28.1475 67.2188 26.9346 66.6562C25.7217 66.1113 24.4121 65.3291 23.0059 64.3096C21.7227 63.4131 20.4482 62.4287 19.1826 61.3564C16.2119 58.8955 13.4961 57.1553 11.0352 56.1357C9.61133 55.5381 8.08203 55.2393 6.44727 55.2393H5.84082C5.73535 55.2393 5.52441 55.2568 5.20801 55.292L13.25 17.877C10.8242 18.8789 8.96094 20.373 7.66016 22.3594C6.35938 24.3281 5.70898 26.7539 5.70898 29.6367C5.70898 30.7441 5.83203 31.6494 6.07812 32.3525C6.14844 32.5811 6.23633 32.7832 6.3418 32.959C6.41211 33.082 6.44727 33.2051 6.44727 33.3281C4.49609 33.3281 3.07227 32.9326 2.17578 32.1416C1.17383 31.2979 0.672852 29.9443 0.672852 28.0811C0.672852 26.9033 0.927734 25.7432 1.4375 24.6006C1.94727 23.4404 2.66797 22.3242 3.59961 21.252C4.49609 20.2148 5.55078 19.2568 6.76367 18.3779C7.99414 17.4814 9.3125 16.708 10.7188 16.0576C13.707 14.7041 16.6777 14.0273 19.6309 14.0273C20.2812 14.0273 21.002 14.0713 21.793 14.1592L13.4873 52.9189C14.3486 53.1123 15.2187 53.4023 16.0977 53.7891C16.9941 54.1758 18.0137 54.6768 19.1562 55.292L22.1094 56.874C24.3945 58.1221 26.46 58.9834 28.3057 59.458C29.3604 59.7393 30.4678 59.8799 31.6279 59.8799C33.2627 59.8799 34.7744 59.5898 36.1631 59.0098C35.8467 61.6465 35.2051 63.7119 34.2383 65.2061C33.7637 65.9443 33.21 66.5068 32.5771 66.8936C31.9619 67.2979 31.2852 67.5 30.5469 67.5ZM37.9297 13.5H39.0635L42.3066 23.7041H40.5928L37.3496 19.3799L28.8594 23.7041H26.4863L37.9297 13.5ZM28.543 54.3164C25.8887 54.3164 23.8408 53.6484 22.3994 52.3125C20.8701 50.8887 20.1055 48.7002 20.1055 45.7471C20.1055 44.6396 20.2197 43.4092 20.4482 42.0557C20.6592 40.7021 20.9844 39.3486 21.4238 37.9951C21.916 36.4834 22.54 35.0508 23.2959 33.6973C24.0693 32.3438 24.9658 31.1484 25.9854 30.1113C28.3408 27.7207 31.2412 26.5254 34.6865 26.5254C36.8838 26.5254 38.4834 27.0527 39.4854 28.1074C40.2588 28.9336 40.6455 30.1289 40.6455 31.6934C40.6455 33.2227 40.3115 34.6641 39.6436 36.0176C38.9756 37.3535 38.0527 38.54 36.875 39.5771C35.6973 40.5967 34.3613 41.4141 32.8672 42.0293C31.373 42.627 29.8262 42.9785 28.2266 43.084C28.1387 43.998 28.0947 44.7188 28.0947 45.2461C28.0947 47.0039 28.4287 48.2168 29.0967 48.8848C29.6768 49.4824 30.6436 49.7812 31.9971 49.7812C33.9482 49.7812 35.7324 49.2539 37.3496 48.1992C38.0352 47.7598 38.6943 47.2412 39.3271 46.6436C39.96 46.0283 40.6982 45.2549 41.542 44.3232H43.3877C41.6826 47.2061 39.7227 49.5 37.5078 51.2051C34.7832 53.2793 31.7949 54.3164 28.543 54.3164ZM28.6484 40.5C29.6504 40.4297 30.626 40.1396 31.5752 39.6299C32.5244 39.1201 33.3682 38.4521 34.1064 37.626C34.8447 36.7822 35.4248 35.8418 35.8467 34.8047C36.2686 33.75 36.4795 32.6777 36.4795 31.5879C36.4795 30.8672 36.374 30.3223 36.1631 29.9531C35.9697 29.5664 35.627 29.373 35.1348 29.373C34.4844 29.373 33.8252 29.6895 33.1572 30.3223C32.5068 30.9551 31.874 31.8252 31.2588 32.9326C30.6963 33.9697 30.1865 35.1475 29.7295 36.4658C29.2725 37.7842 28.9121 39.1289 28.6484 40.5ZM74.1582 54.9229C72.6641 54.9229 71.4863 54.668 70.625 54.1582C69.4121 53.4551 68.8057 52.374 68.8057 50.915C68.8057 49.9482 69.0342 48.9023 69.4912 47.7773C70.1592 48.498 70.7744 49.0078 71.3369 49.3066C71.8994 49.5879 72.4971 49.7285 73.1299 49.7285C74.9229 49.7285 76.3027 48.6211 77.2695 46.4062C77.6738 45.5098 77.9727 44.499 78.166 43.374C78.3594 42.2314 78.4561 41.1152 78.4561 40.0254C78.4561 37.9512 78.0957 36.334 77.375 35.1738C76.5137 33.8203 75.1689 33.1436 73.3408 33.1436C72.374 33.1436 71.5479 33.2051 70.8623 33.3281L66.4326 54H58.6543L65.9844 19.6436L73.9736 18.5889L71.4424 30.5596H71.7588C72.7959 30.5596 73.7891 30.3047 74.7383 29.7949C75.6875 29.2852 76.5225 28.5908 77.2432 27.7119C77.9463 26.8506 78.5 25.9014 78.9043 24.8643C79.3262 23.8271 79.5371 22.8076 79.5371 21.8057C79.5371 21.0322 79.3965 20.3027 79.1152 19.6172C78.8516 18.9141 78.4473 18.2988 77.9023 17.7715C76.6543 16.5762 74.8262 15.9785 72.418 15.9785C70.2031 15.9785 68.1025 16.4531 66.1162 17.4023C63.9014 18.4746 62.2051 19.9248 61.0273 21.7529C59.6211 23.8799 58.918 26.332 58.918 29.1094C58.918 30.2695 59.0498 31.166 59.3135 31.7988C59.3838 32.0273 59.4717 32.2295 59.5771 32.4053C59.6475 32.5283 59.6826 32.6514 59.6826 32.7744C57.7666 32.7744 56.3252 32.3965 55.3584 31.6406C54.3916 30.8672 53.9082 29.5928 53.9082 27.8174C53.9082 25.3564 54.8486 23.0098 56.7295 20.7773C57.6084 19.7227 58.6543 18.7559 59.8672 17.877C61.0977 16.9805 62.4424 16.207 63.9014 15.5566C66.9775 14.1855 70.1768 13.5 73.499 13.5C77.208 13.5 80.1172 14.3789 82.2266 16.1367C83.1406 16.9102 83.8262 17.8154 84.2832 18.8525C84.7578 19.8721 84.9951 20.9531 84.9951 22.0957C84.9951 23.8008 84.5381 25.3828 83.624 26.8418C82.6045 28.459 81.2598 29.7334 79.5898 30.665C81.752 31.0518 83.3955 32.0977 84.5205 33.8027C85.4873 35.2969 85.9707 37.1514 85.9707 39.3662C85.9707 40.2803 85.8828 41.291 85.707 42.3984C85.5312 43.5059 85.2676 44.6045 84.916 45.6943C84.0547 48.4014 82.833 50.5195 81.251 52.0488C79.2822 53.9648 76.918 54.9229 74.1582 54.9229ZM94.3818 54.3164C92.3252 54.3164 90.6641 53.6748 89.3984 52.3916C87.9219 50.8799 87.1836 48.6299 87.1836 45.6416C87.1836 44.376 87.3154 43.04 87.5791 41.6338C87.8252 40.2275 88.1943 38.8389 88.6865 37.4678C89.8115 34.374 91.3496 31.8779 93.3008 29.9795C95.5508 27.8174 98.1436 26.7363 101.079 26.7363C102.538 26.7363 103.628 26.9912 104.349 27.501C105.087 27.9932 105.456 28.6523 105.456 29.4785V29.874L106.036 27H113.814L109.938 45.3516C109.78 45.8789 109.701 46.459 109.701 47.0918C109.701 48.6387 110.439 49.4121 111.916 49.4121C112.9 49.4121 113.797 48.9111 114.605 47.9092C115.291 47.0654 115.854 45.8701 116.293 44.3232H118.561C117.594 47.0654 116.425 49.2363 115.054 50.8359C113.894 52.1543 112.584 53.1035 111.125 53.6836C110.053 54.1055 108.919 54.3164 107.724 54.3164C106.194 54.3164 104.973 53.9033 104.059 53.0771C103.162 52.2334 102.617 50.9941 102.424 49.3594C101.404 50.8008 100.332 51.9258 99.207 52.7344C97.7656 53.7891 96.1572 54.3164 94.3818 54.3164ZM97.8887 49.0957C98.293 49.0957 98.7148 48.9902 99.1543 48.7793C99.6113 48.5684 100.051 48.2695 100.473 47.8828C101.422 46.9688 102.055 45.7822 102.371 44.3232L104.955 32.1416C104.955 31.9658 104.911 31.7637 104.823 31.5352C104.753 31.2891 104.647 31.0605 104.507 30.8496C104.085 30.3398 103.496 30.085 102.74 30.085C102.02 30.085 101.316 30.3223 100.631 30.7969C99.9629 31.2715 99.3301 31.9307 98.7324 32.7744C97.6777 34.3037 96.8076 36.2988 96.1221 38.7598C95.8057 39.8496 95.5684 40.9307 95.4102 42.0029C95.252 43.0576 95.1729 44.0156 95.1729 44.877C95.1729 46.6699 95.5068 47.8828 96.1748 48.5156C96.4033 48.7617 96.6582 48.9199 96.9395 48.9902C97.2207 49.0605 97.5371 49.0957 97.8887 49.0957ZM119.984 27H127.763L127.077 30.3486C128.308 29.2588 129.31 28.4854 130.083 28.0283C131.278 27.3428 132.447 27 133.59 27C134.75 27 135.682 27.4131 136.385 28.2393C136.701 28.6084 136.938 29.0391 137.097 29.5312C137.255 30.0059 137.334 30.5156 137.334 31.0605C137.334 31.5527 137.255 32.0273 137.097 32.4844C136.938 32.9414 136.701 33.3545 136.385 33.7236C136.033 34.1104 135.603 34.418 135.093 34.6465C134.601 34.875 134.047 34.9893 133.432 34.9893C132.957 34.9893 132.579 34.9102 132.298 34.752C132.017 34.5938 131.797 34.3652 131.639 34.0664C131.498 33.7676 131.401 33.4775 131.349 33.1963C131.19 32.4404 131.032 31.9395 130.874 31.6934C130.751 31.5176 130.558 31.4297 130.294 31.4297C129.538 31.4297 128.896 31.5879 128.369 31.9043C127.842 32.2207 127.174 32.748 126.365 33.4863L122.041 54H114.263L119.984 27ZM143.794 54.3164C141.333 54.3164 139.461 53.7188 138.178 52.5234C136.895 51.3105 136.253 49.6055 136.253 47.4082C136.253 46.2305 136.376 45.2021 136.622 44.3232L142.396 17.2705L150.386 16.1895L147.802 28.3447C148.839 27.7119 149.718 27.29 150.438 27.0791C150.966 26.9209 151.563 26.8418 152.231 26.8418C154.253 26.8418 155.791 27.5186 156.846 28.8721C158.023 30.4014 158.612 32.8008 158.612 36.0703C158.612 37.1953 158.507 38.417 158.296 39.7354C158.085 41.0361 157.76 42.3281 157.32 43.6113C156.266 46.6875 154.736 49.1484 152.732 50.9941C150.307 53.209 147.327 54.3164 143.794 54.3164ZM146.826 49.0957C147.916 49.0957 148.988 48.3662 150.043 46.9072C150.957 45.6064 151.713 43.9014 152.311 41.792C152.873 39.7178 153.154 37.7402 153.154 35.8594C153.154 34.4004 152.926 33.2051 152.469 32.2734C152.223 31.7637 151.915 31.3682 151.546 31.0869C151.177 30.8057 150.755 30.665 150.28 30.665C149.665 30.665 149.111 30.7266 148.619 30.8496C147.881 31.043 147.371 31.3066 147.09 31.6406L144.137 45.3516C144.031 45.791 143.979 46.2041 143.979 46.5908C143.979 48.2607 144.928 49.0957 146.826 49.0957ZM168.342 54.3164C165.688 54.3164 163.64 53.6484 162.198 52.3125C160.669 50.8887 159.904 48.7002 159.904 45.7471C159.904 44.6396 160.019 43.4092 160.247 42.0557C160.458 40.7021 160.783 39.3486 161.223 37.9951C161.715 36.4834 162.339 35.0508 163.095 33.6973C163.868 32.3438 164.765 31.1484 165.784 30.1113C168.14 27.7207 171.04 26.5254 174.485 26.5254C176.683 26.5254 178.282 27.0527 179.284 28.1074C180.058 28.9336 180.444 30.1289 180.444 31.6934C180.444 33.2227 180.11 34.6641 179.442 36.0176C178.774 37.3535 177.852 38.54 176.674 39.5771C175.496 40.5967 174.16 41.4141 172.666 42.0293C171.172 42.627 169.625 42.9785 168.025 43.084C167.938 43.998 167.894 44.7188 167.894 45.2461C167.894 47.0039 168.228 48.2168 168.896 48.8848C169.476 49.4824 170.442 49.7812 171.796 49.7812C173.747 49.7812 175.531 49.2539 177.148 48.1992C177.834 47.7598 178.493 47.2412 179.126 46.6436C179.759 46.0283 180.497 45.2549 181.341 44.3232H183.187C181.481 47.2061 179.521 49.5 177.307 51.2051C174.582 53.2793 171.594 54.3164 168.342 54.3164ZM168.447 40.5C169.449 40.4297 170.425 40.1396 171.374 39.6299C172.323 39.1201 173.167 38.4521 173.905 37.626C174.644 36.7822 175.224 35.8418 175.646 34.8047C176.067 33.75 176.278 32.6777 176.278 31.5879C176.278 30.8672 176.173 30.3223 175.962 29.9531C175.769 29.5664 175.426 29.373 174.934 29.373C174.283 29.373 173.624 29.6895 172.956 30.3223C172.306 30.9551 171.673 31.8252 171.058 32.9326C170.495 33.9697 169.985 35.1475 169.528 36.4658C169.071 37.7842 168.711 39.1289 168.447 40.5ZM185.006 27H192.784L192.099 30.3486C193.329 29.2588 194.331 28.4854 195.104 28.0283C196.3 27.3428 197.469 27 198.611 27C199.771 27 200.703 27.4131 201.406 28.2393C201.723 28.6084 201.96 29.0391 202.118 29.5312C202.276 30.0059 202.355 30.5156 202.355 31.0605C202.355 31.5527 202.276 32.0273 202.118 32.4844C201.96 32.9414 201.723 33.3545 201.406 33.7236C201.055 34.1104 200.624 34.418 200.114 34.6465C199.622 34.875 199.068 34.9893 198.453 34.9893C197.979 34.9893 197.601 34.9102 197.319 34.752C197.038 34.5938 196.818 34.3652 196.66 34.0664C196.52 33.7676 196.423 33.4775 196.37 33.1963C196.212 32.4404 196.054 31.9395 195.896 31.6934C195.772 31.5176 195.579 31.4297 195.315 31.4297C194.56 31.4297 193.918 31.5879 193.391 31.9043C192.863 32.2207 192.195 32.748 191.387 33.4863L187.062 54H179.284L185.006 27Z" fill="black"/>
<path d="M90.9936 84C90.4936 84 90.1336 83.75 89.9136 83.25L81.0036 62.4C80.7836 61.84 80.7636 61.4 80.9436 61.08C81.1436 60.74 81.4836 60.57 81.9636 60.57C82.4636 60.57 82.8236 60.82 83.0436 61.32L91.3236 81.12H90.6636L98.9136 61.38C99.0336 61.08 99.1836 60.87 99.3636 60.75C99.5436 60.63 99.7836 60.57 100.084 60.57C100.544 60.57 100.854 60.75 101.014 61.11C101.174 61.45 101.164 61.84 100.984 62.28L92.0436 83.25C91.9236 83.53 91.7736 83.73 91.5936 83.85C91.4136 83.95 91.2136 84 90.9936 84ZM106.048 84C105.688 84 105.398 83.9 105.178 83.7C104.978 83.48 104.878 83.19 104.878 82.83V68.76C104.878 68.4 104.978 68.12 105.178 67.92C105.398 67.7 105.688 67.59 106.048 67.59C106.388 67.59 106.658 67.7 106.858 67.92C107.078 68.12 107.188 68.4 107.188 68.76V82.83C107.188 83.19 107.078 83.48 106.858 83.7C106.658 83.9 106.388 84 106.048 84ZM106.018 64.47C105.578 64.47 105.198 64.31 104.878 63.99C104.558 63.67 104.398 63.28 104.398 62.82C104.398 62.32 104.558 61.93 104.878 61.65C105.218 61.35 105.608 61.2 106.048 61.2C106.468 61.2 106.838 61.35 107.158 61.65C107.498 61.93 107.668 62.32 107.668 62.82C107.668 63.28 107.508 63.67 107.188 63.99C106.868 64.31 106.478 64.47 106.018 64.47ZM127.14 84C126.8 84 126.52 83.89 126.3 83.67C126.08 83.45 125.97 83.18 125.97 82.86V75.06C125.97 73.82 125.73 72.8 125.25 72C124.79 71.2 124.15 70.6 123.33 70.2C122.53 69.8 121.62 69.6 120.6 69.6C119.62 69.6 118.73 69.79 117.93 70.17C117.15 70.55 116.53 71.07 116.07 71.73C115.61 72.39 115.38 73.14 115.38 73.98H113.73C113.77 72.72 114.11 71.6 114.75 70.62C115.39 69.62 116.24 68.84 117.3 68.28C118.36 67.7 119.54 67.41 120.84 67.41C122.26 67.41 123.53 67.71 124.65 68.31C125.77 68.89 126.65 69.75 127.29 70.89C127.95 72.03 128.28 73.42 128.28 75.06V82.86C128.28 83.18 128.17 83.45 127.95 83.67C127.73 83.89 127.46 84 127.14 84ZM114.24 84C113.88 84 113.59 83.9 113.37 83.7C113.17 83.48 113.07 83.2 113.07 82.86V68.76C113.07 68.4 113.17 68.12 113.37 67.92C113.59 67.7 113.88 67.59 114.24 67.59C114.58 67.59 114.85 67.7 115.05 67.92C115.27 68.12 115.38 68.4 115.38 68.76V82.86C115.38 83.2 115.27 83.48 115.05 83.7C114.85 83.9 114.58 84 114.24 84ZM139.793 84C138.733 84 137.783 83.75 136.943 83.25C136.123 82.75 135.473 82.07 134.993 81.21C134.513 80.33 134.273 79.33 134.273 78.21V63.54C134.273 63.2 134.373 62.92 134.573 62.7C134.793 62.48 135.073 62.37 135.413 62.37C135.753 62.37 136.033 62.48 136.253 62.7C136.473 62.92 136.583 63.2 136.583 63.54V78.21C136.583 79.23 136.883 80.07 137.483 80.73C138.083 81.37 138.853 81.69 139.793 81.69H140.603C140.923 81.69 141.183 81.8 141.383 82.02C141.583 82.24 141.683 82.52 141.683 82.86C141.683 83.2 141.563 83.48 141.323 83.7C141.083 83.9 140.783 84 140.423 84H139.793ZM132.323 70.2C132.023 70.2 131.773 70.11 131.573 69.93C131.373 69.73 131.273 69.49 131.273 69.21C131.273 68.91 131.373 68.67 131.573 68.49C131.773 68.29 132.023 68.19 132.323 68.19H139.973C140.273 68.19 140.523 68.29 140.723 68.49C140.923 68.67 141.023 68.91 141.023 69.21C141.023 69.49 140.923 69.73 140.723 69.93C140.523 70.11 140.273 70.2 139.973 70.2H132.323ZM152.673 84.15C151.133 84.15 149.753 83.79 148.533 83.07C147.313 82.33 146.343 81.33 145.623 80.07C144.923 78.81 144.573 77.39 144.573 75.81C144.573 74.21 144.933 72.78 145.653 71.52C146.393 70.26 147.393 69.27 148.653 68.55C149.913 67.81 151.333 67.44 152.913 67.44C154.493 67.44 155.903 67.81 157.143 68.55C158.403 69.27 159.393 70.26 160.113 71.52C160.853 72.78 161.233 74.21 161.253 75.81L160.323 76.53C160.323 77.97 159.983 79.27 159.303 80.43C158.643 81.57 157.733 82.48 156.573 83.16C155.433 83.82 154.133 84.15 152.673 84.15ZM152.913 82.05C154.073 82.05 155.103 81.78 156.003 81.24C156.923 80.7 157.643 79.96 158.163 79.02C158.703 78.06 158.973 76.99 158.973 75.81C158.973 74.61 158.703 73.54 158.163 72.6C157.643 71.66 156.923 70.92 156.003 70.38C155.103 69.82 154.073 69.54 152.913 69.54C151.773 69.54 150.743 69.82 149.823 70.38C148.903 70.92 148.173 71.66 147.633 72.6C147.093 73.54 146.823 74.61 146.823 75.81C146.823 76.99 147.093 78.06 147.633 79.02C148.173 79.96 148.903 80.7 149.823 81.24C150.743 81.78 151.773 82.05 152.913 82.05ZM160.083 84C159.743 84 159.463 83.9 159.243 83.7C159.023 83.48 158.913 83.2 158.913 82.86V77.73L159.483 75.36L161.253 75.81V82.86C161.253 83.2 161.143 83.48 160.923 83.7C160.703 83.9 160.423 84 160.083 84ZM172.976 84.15C171.396 84.15 169.996 83.8 168.776 83.1C167.556 82.38 166.596 81.39 165.896 80.13C165.216 78.87 164.876 77.43 164.876 75.81C164.876 74.17 165.236 72.72 165.956 71.46C166.676 70.2 167.666 69.22 168.926 68.52C170.186 67.8 171.616 67.44 173.216 67.44C174.836 67.44 176.266 67.8 177.506 68.52C178.766 69.22 179.746 70.2 180.446 71.46C181.166 72.72 181.536 74.17 181.556 75.81L180.206 76.53C180.206 78.01 179.896 79.33 179.276 80.49C178.656 81.63 177.796 82.53 176.696 83.19C175.616 83.83 174.376 84.15 172.976 84.15ZM173.276 90.48C171.696 90.48 170.306 90.18 169.106 89.58C167.906 89 166.916 88.2 166.136 87.18C165.916 86.94 165.816 86.68 165.836 86.4C165.876 86.12 166.026 85.89 166.286 85.71C166.546 85.53 166.836 85.47 167.156 85.53C167.476 85.59 167.726 85.74 167.906 85.98C168.486 86.7 169.226 87.28 170.126 87.72C171.046 88.16 172.106 88.38 173.306 88.38C174.426 88.38 175.436 88.11 176.336 87.57C177.236 87.03 177.946 86.27 178.466 85.29C179.006 84.31 179.276 83.16 179.276 81.84V77.28L180.146 75.54L181.556 75.81V81.93C181.556 83.55 181.196 85 180.476 86.28C179.756 87.58 178.776 88.6 177.536 89.34C176.296 90.1 174.876 90.48 173.276 90.48ZM173.216 82.05C174.396 82.05 175.436 81.79 176.336 81.27C177.256 80.73 177.976 79.99 178.496 79.05C179.016 78.11 179.276 77.03 179.276 75.81C179.276 74.59 179.016 73.51 178.496 72.57C177.976 71.61 177.256 70.87 176.336 70.35C175.436 69.81 174.396 69.54 173.216 69.54C172.036 69.54 170.986 69.81 170.066 70.35C169.146 70.87 168.426 71.61 167.906 72.57C167.386 73.51 167.126 74.59 167.126 75.81C167.126 77.03 167.386 78.11 167.906 79.05C168.426 79.99 169.146 80.73 170.066 81.27C170.986 81.79 172.036 82.05 173.216 82.05ZM193.489 84.15C191.869 84.15 190.429 83.8 189.169 83.1C187.929 82.38 186.949 81.39 186.229 80.13C185.529 78.87 185.179 77.43 185.179 75.81C185.179 74.17 185.509 72.73 186.169 71.49C186.849 70.23 187.779 69.24 188.959 68.52C190.139 67.8 191.499 67.44 193.039 67.44C194.559 67.44 195.879 67.79 196.999 68.49C198.139 69.17 199.019 70.12 199.639 71.34C200.259 72.56 200.569 73.95 200.569 75.51C200.569 75.83 200.469 76.09 200.269 76.29C200.069 76.47 199.809 76.56 199.489 76.56H186.739V74.64H199.729L198.439 75.57C198.459 74.41 198.249 73.37 197.809 72.45C197.369 71.53 196.739 70.81 195.919 70.29C195.119 69.77 194.159 69.51 193.039 69.51C191.899 69.51 190.899 69.78 190.039 70.32C189.179 70.86 188.509 71.61 188.029 72.57C187.569 73.51 187.339 74.59 187.339 75.81C187.339 77.03 187.599 78.11 188.119 79.05C188.659 79.99 189.389 80.73 190.309 81.27C191.229 81.81 192.289 82.08 193.489 82.08C194.209 82.08 194.929 81.96 195.649 81.72C196.389 81.46 196.979 81.14 197.419 80.76C197.639 80.58 197.889 80.49 198.169 80.49C198.449 80.47 198.689 80.54 198.889 80.7C199.149 80.94 199.279 81.2 199.279 81.48C199.299 81.76 199.189 82 198.949 82.2C198.289 82.76 197.449 83.23 196.429 83.61C195.409 83.97 194.429 84.15 193.489 84.15Z" fill="#161717"/>
<g clip-path="url(#clip0_4_48)">
<path d="M214.054 28.5224H249.908V83.8574H214.054V28.5224Z" fill="white"/>
<path d="M229.412 34.4164C217.659 36.3554 214.173 43.0824 214.173 43.0824L215.664 56.1304C215.664 56.1304 217.008 51.2444 225.422 46.7504C234.144 42.0884 244.448 40.5974 249.033 32.4004L229.412 34.4164Z" fill="#ED6C30"/>
<path d="M248.396 39.7014C247.297 44.9164 242.698 49.0814 238.652 50.9294C231.365 54.2614 227.606 56.0324 224.225 58.2234C217.162 62.8084 215.881 68.4854 215.881 68.4854V76.6544L220.249 79.8324C220.249 79.8324 222.916 74.6454 226.969 70.7604C231.946 66.0004 234.872 65.1534 240.948 61.5064C245.463 58.8044 248.396 54.0304 248.396 54.0304V39.7014Z" fill="#006CA2"/>
<path d="M230.616 82.9194C230.616 82.9194 233.15 78.5864 236.237 75.7024C242.159 70.1654 245.463 70.8584 248.207 63.1934V76.1434C248.207 76.1504 246.352 82.8004 230.616 82.9194V82.9194Z" fill="#ED6C30"/>
<path d="M220.872 14.6414C222.496 12.6394 224.589 11.3514 226.885 10.7704C230.063 9.96541 233.892 9.96541 237.07 10.7704C239.359 11.3514 241.452 12.6394 243.062 14.6414C244.098 15.9154 245.89 18.1764 245.379 20.0734C245.113 21.0604 244.392 21.2424 243.636 21.5504C241.788 22.2924 239.842 22.6634 237.875 22.8314C233.857 23.1604 230.014 23.1604 226.003 22.8314C224.043 22.6634 222.097 22.2854 220.256 21.5504C219.5 21.2424 218.786 21.0604 218.527 20.0734C218.016 18.1694 219.829 15.9154 220.872 14.6414V14.6414ZM250.972 29.3694C249.299 30.2094 247.521 30.8184 245.61 31.1894C242.999 31.7004 240.332 32.0224 237.651 32.2044C233.906 32.4564 229.958 32.4634 226.15 32.2044C223.469 32.0224 220.809 31.7004 218.205 31.1894C216.287 30.8184 214.523 30.2094 212.857 29.3694C211.247 28.5574 210.491 27.0594 211.373 25.4984C212.003 24.3854 213.144 23.5174 214.558 23.2794C215.321 23.1394 218.359 26.2544 231.708 26.2544C245.316 26.2544 248.55 23.1394 249.327 23.2794C250.741 23.5244 251.875 24.3854 252.498 25.4984C253.352 27.0594 252.589 28.5574 250.972 29.3694V29.3694ZM243.139 93.9444C241.515 96.0724 239.415 97.4514 237.105 98.0674C233.906 98.9214 230.056 98.9214 226.85 98.0674C224.547 97.4514 222.433 96.0724 220.802 93.9444C220.438 93.4684 219.976 92.8454 219.549 92.1664C221.194 93.1114 223.007 93.8184 224.946 94.1964C229.321 95.0504 234.585 95.0504 238.967 94.1964C240.92 93.8114 242.747 93.0974 244.399 92.1314C243.979 92.8314 243.51 93.4614 243.139 93.9444ZM251.329 82.1914C250.818 84.0114 249.53 85.8524 247.941 86.8674C246.135 88.0224 244.224 88.9884 242.18 89.5974C235.677 91.5364 227.669 91.5364 221.173 89.5974C219.136 88.9884 217.239 88.0224 215.44 86.8674C213.858 85.8454 212.577 84.0044 212.087 82.1914C211.835 81.2674 211.786 80.2384 212.22 79.3354C212.563 78.6004 213.389 77.5084 214.313 77.8164C214.838 77.9914 215.23 78.7264 215.552 79.1394C216.035 79.7624 216.581 80.3154 217.211 80.8124C218.478 81.8134 219.969 82.5274 221.516 83.0454C227.557 85.0684 235.817 85.0754 241.886 83.0454C243.44 82.5274 244.931 81.8134 246.205 80.8124C246.842 80.3154 247.388 79.7624 247.885 79.1394C248.207 78.7264 248.606 77.9914 249.131 77.8164C250.055 77.5084 250.867 78.6004 251.21 79.3354C251.637 80.2384 251.588 81.2674 251.329 82.1914Z" fill="#4B5051"/>
</g>
<defs>
<clipPath id="clip0_4_48">
<rect width="42" height="89.6" fill="white" transform="translate(211 9)"/>
</clipPath>
</defs>
</svg>
