<svg width="30" height="30" viewBox="0 0 30 30" fill="none" xmlns="http://www.w3.org/2000/svg">
<path d="M22.2 0C19.4462 0 17.0259 1.43892 15.6375 3.6H2.4C1.074 3.6 0 4.674 0 6V27.6C0 27.8136 0.0374624 28.0161 0.0890625 28.2141L15.6727 12.6305C16.0416 13.3905 16.454 14.1137 16.8773 14.8195L14.8969 16.8L26.3109 28.2141C26.3625 28.0161 26.4 27.8136 26.4 27.6V16.7156C26.5803 16.4125 26.7632 16.1077 26.9484 15.8039C28.3788 13.4579 30 10.8 30 7.8C30 3.4992 26.5008 0 22.2 0ZM22.2 2.4C25.182 2.4 27.6 4.818 27.6 7.8C27.6 9.31768 26.9949 10.8118 26.2195 12.2672C25.892 12.8815 25.5439 13.4922 25.1813 14.0906C25.1535 14.1364 25.127 14.1832 25.0992 14.2289C25.0727 14.2726 25.0484 14.3142 25.0219 14.3578C24.7091 14.8717 24.4024 15.3793 24.1125 15.8789C23.8521 16.328 23.6 16.7764 23.3883 17.2125C23.2488 17.4996 23.1261 17.7823 23.018 18.0633C22.9895 18.1373 22.9666 18.2101 22.9406 18.2836C22.8627 18.5044 22.7986 18.7231 22.7461 18.9398C22.7259 19.0235 22.7059 19.1076 22.6898 19.1906C22.6353 19.473 22.5961 19.7525 22.5961 20.0273C22.5961 20.2301 22.4016 20.3813 22.2 20.3813C21.9984 20.3813 21.832 20.2032 21.832 20.0016C21.8319 19.7541 21.8026 19.5008 21.757 19.2469C21.7418 19.1617 21.716 19.0749 21.6961 18.9891C21.6596 18.8318 21.6203 18.6752 21.5695 18.5156C21.5319 18.397 21.49 18.2769 21.4453 18.157C21.3901 18.0093 21.3297 17.8613 21.2648 17.7117C21.2141 17.5946 21.1638 17.476 21.1078 17.3578C21.0647 17.2669 21.0155 17.1751 20.9695 17.0836C20.8147 16.7748 20.6365 16.4571 20.4563 16.1414C20.271 15.8174 20.0831 15.49 19.882 15.1594C19.5535 14.6187 19.2228 14.0682 18.8906 13.5117C18.3637 12.6293 17.8631 11.7331 17.4844 10.8188C17.4827 10.8148 17.4813 10.811 17.4797 10.807C17.3787 10.5628 17.2877 10.3171 17.2055 10.0711C17.205 10.0697 17.2059 10.0678 17.2055 10.0664C17.1262 9.82877 17.0549 9.59071 16.9969 9.35156C16.9732 9.25245 16.9579 9.15326 16.9383 9.05391C16.9069 8.89784 16.8743 8.74178 16.8539 8.58516C16.8206 8.32447 16.8 8.06208 16.8 7.8C16.8 7.46582 16.8403 7.1424 16.8984 6.825C16.9095 6.7657 16.9182 6.70545 16.9313 6.64688C16.9908 6.3739 17.0758 6.11052 17.175 5.85469C17.218 5.74593 17.2634 5.63875 17.3133 5.53359C17.3985 5.35032 17.4971 5.17533 17.6016 5.00391C17.7089 4.83089 17.8252 4.6642 17.9508 4.50469C17.9924 4.45108 18.0361 4.39962 18.0797 4.34766C18.3037 4.08369 18.551 3.8393 18.8203 3.62109C18.8285 3.61446 18.8355 3.60658 18.8438 3.6C19.7677 2.86052 20.9247 2.4 22.2 2.4ZM7.29844 6C8.56804 6 9.72369 6.48414 10.5961 7.27734L9.21797 8.65547C8.70077 8.21267 8.03044 7.94297 7.29844 7.94297C5.66644 7.94297 4.34531 9.26409 4.34531 10.8961C4.34531 12.5269 5.66644 13.8516 7.29844 13.8516C8.66764 13.8516 9.61763 13.0403 9.96563 11.9063H7.29844V10.0336L11.9156 10.0406C12.3164 11.9498 11.4072 15.7922 7.29844 15.7922C4.59244 15.7922 2.4 13.6009 2.4 10.8961C2.4 8.19129 4.59244 6 7.29844 6ZM22.2 6C21.7226 6 21.2648 6.18964 20.9272 6.52721C20.5896 6.86477 20.4 7.32261 20.4 7.8C20.4 8.27739 20.5896 8.73523 20.9272 9.07279C21.2648 9.41036 21.7226 9.6 22.2 9.6C22.6774 9.6 23.1352 9.41036 23.4728 9.07279C23.8104 8.73523 24 8.27739 24 7.8C24 7.32261 23.8104 6.86477 23.4728 6.52721C23.1352 6.18964 22.6774 6 22.2 6ZM13.2 18.4969L1.78594 29.9109C1.98394 29.9625 2.1864 30 2.4 30H24C24.2136 30 24.4161 29.9625 24.6141 29.9109L13.2 18.4969Z" fill="white"/>
</svg>
